<?xml version="1.0" encoding="utf-8"?>
<!-- Generator: Adobe Illustrator 27.5.0, SVG Export Plug-In . SVG Version: 6.00 Build 0)  -->
<svg version="1.1" id="Слой_1" xmlns="http://www.w3.org/2000/svg" xmlns:xlink="http://www.w3.org/1999/xlink" x="0px" y="0px"
	 viewBox="0 0 3100 2000" style="enable-background:new 0 0 3100 2000;" xml:space="preserve">
<rect x="0.001" style="fill:#FFFFFF;" width="3100" height="2000"/>
<g>
	<path style="fill:#E3EAFF;" d="M203.844,1820.49c-280.118-467.59,84.102-548.246,46.16-719.623
		c-53.398-241.185,73.899-510.714,179.541-578.928c227.02-146.587,413.204,0,598.963-130.897
		c240.649-169.577,444.679-322.086,717.348-203.873c95.397,41.36,185.047,104.114,288.012,116.955
		c259.418,32.353,564.18-88.738,652.849,251.114c62.736,240.456-31.134,372.832,145.231,595.937
		c162.18,205.162,53.295,585.186-90.51,657.619C2741.446,1808.791,203.844,1820.49,203.844,1820.49z"/>
	<g>
		<path style="fill:#95A6DB;" d="M102.486,1605.764c25.586-1.1,52.927,19.604,52.927,19.604s-25.266,27.624-50.853,28.722
			c-25.586,1.1-46.792-8.828-47.365-22.174C56.622,1618.572,76.899,1606.862,102.486,1605.764z"/>
		<path style="fill:#95A6DB;" d="M157.796,1652.442c14.392-21.183,47.323-30.76,47.323-30.76s7.08,36.761-7.313,57.943
			c-14.393,21.184-35.017,32.271-46.065,24.765C140.694,1696.884,143.404,1673.626,157.796,1652.442z"/>
		<path style="fill:#95A6DB;" d="M279.305,1603.84c4.103-1.727,7.022-2.697,7.772-2.941c0.09-0.033,0.16-0.057,0.186-0.057
			l0.01-0.006c0,0,0.005,0.012,0.001,0.027l0.034,0.117c0.077,0.404,0.306,1.594,0.59,3.401c1.52,9.702,4.505,37.104-6.844,54.527
			c-13.994,21.447-34.411,32.924-45.589,25.625c-11.189-7.293-8.919-30.604,5.064-52.045c6.263-9.6,16.287-16.954,25.453-22.133
			C270.91,1607.551,275.594,1605.387,279.305,1603.84z"/>
		<path style="fill:#95A6DB;" d="M186.446,1568.42c17.171,19,18.673,53.263,18.673,53.263s-37.391-1.831-54.561-20.831
			c-17.17-19.002-23.057-41.664-13.146-50.621C147.322,1541.275,169.276,1549.419,186.446,1568.42z"/>
		<path style="fill:#95A6DB;" d="M263.481,1552.826c19.058,17.107,24.124,51.025,24.124,51.025s-37.378,2.077-56.436-15.029
			c-19.058-17.107-27.274-39.034-18.352-48.974C221.741,1529.908,244.423,1535.718,263.481,1552.826z"/>
		<g>
			<path style="fill:#95A6DB;" d="M144.349,1623.3c0.38,0.03,36.542,2.089,122.294-20.534c6.282-1.662,12.832-3.453,19.649-5.383
				l0.12,0.41l0.862,3.043l-0.01,0.006l0.011,0.021l0.034,0.117c0.077,0.404,0.306,1.594,0.59,3.401
				c-7.652,2.164-14.949,4.154-21.916,5.974c-85.25,22.32-120.546,20.215-122.126,20.108L144.349,1623.3z"/>
		</g>
	</g>
	<g>
		<path style="fill:#95A6DB;" d="M190.965,1252.045c6.98,25.481-7.565,57.733-7.565,57.733s-33.584-19.069-40.564-44.55
			c-6.979-25.482-1.864-49.09,11.426-52.73C167.553,1208.857,183.985,1226.563,190.965,1252.045z"/>
		<path style="fill:#95A6DB;" d="M159.91,1329.933c24.029,4.214,45.229,29.069,45.229,29.069s-29.158,20.528-53.186,16.315
			c-24.029-4.214-41.727-17.788-39.529-30.321C114.62,1332.463,135.881,1325.721,159.91,1329.933z"/>
		<path style="fill:#95A6DB;" d="M246.054,1424.99c3.361,3.127,5.512,5.461,6.059,6.064c0.07,0.069,0.121,0.125,0.133,0.15
			l0.009,0.007c0,0-0.008,0.011-0.025,0.013l-0.095,0.081c-0.349,0.243-1.369,0.963-2.949,1.996
			c-8.482,5.54-32.993,19.958-54.189,16.664c-26.103-4.075-45.548-18.419-43.419-32.026c2.12-13.615,25.007-21.354,51.101-17.285
			c11.682,1.822,22.848,8.137,31.603,14.563C239.007,1418.665,243.026,1422.154,246.054,1424.99z"/>
		<path style="fill:#95A6DB;" d="M289.06,1458.332c4.537,0.705,7.627,1.432,8.417,1.623c0.098,0.02,0.17,0.037,0.194,0.051
			l0.012,0.002c0,0-0.002,0.012-0.014,0.023l-0.034,0.121c-0.152,0.397-0.593,1.564-1.323,3.307
			c-3.915,9.344-16.123,35.026-35.52,44.186c-23.897,11.265-48.041,10.295-53.908-2.166c-5.88-12.461,8.729-31.705,32.614-42.97
			c10.695-5.042,23.48-6.076,34.333-5.665C279.679,1457.049,284.964,1457.684,289.06,1458.332z"/>
		<path style="fill:#95A6DB;" d="M241.042,1331.004c-10.766,18.76-37.885,28.93-37.885,28.93s-8.313-30.504,2.453-49.264
			c10.766-18.76,27.425-29.414,37.209-23.799C252.602,1292.485,251.808,1312.244,241.042,1331.004z"/>
		<path style="fill:#95A6DB;" d="M287.042,1385.439c-8.017,25.175-37.775,44.311-37.775,44.311s-17.79-34.277-9.772-59.453
			c8.017-25.174,25.161-42.191,38.291-38.01C290.915,1336.468,295.06,1360.266,287.042,1385.439z"/>
		<path style="fill:#95A6DB;" d="M345.81,1414.778c-8.017,25.175-37.776,44.31-37.776,44.31s-17.79-34.277-9.772-59.453
			c8.017-25.174,25.161-42.191,38.291-38.011C349.682,1365.807,353.827,1389.604,345.81,1414.778z"/>
		<path style="fill:#95A6DB;" d="M184.622,1303.016c1.175,2.879,2.069,5.619,3.023,8.386l2.811,8.223
			c1.895,5.453,3.87,10.86,5.979,16.212c4.198,10.708,8.962,21.185,14.443,31.268c10.84,20.209,24.49,38.957,41.03,54.747
			c16.552,15.788,35.852,28.483,56.995,37.294c10.534,4.519,21.375,8.302,32.418,11.092c5.52,1.387,11.073,2.625,16.667,3.393
			c2.792,0.405,5.587,0.711,8.368,0.941c1.384,0.082,2.779,0.209,4.144,0.221c0.686,0.016,1.371,0.033,2.036,0.021
			c0.33-0.005,0.681,0.003,0.99-0.014c0.304-0.011,0.677-0.019,0.868-0.038c2.674-0.269,5.062,1.678,5.332,4.354
			c0.271,2.674-1.679,5.063-4.353,5.332c-0.168,0.017-0.334,0.025-0.499,0.025h-0.181c-0.535-0.003-0.887-0.029-1.308-0.045
			c-0.416-0.016-0.789-0.053-1.184-0.079c-0.786-0.05-1.548-0.129-2.309-0.208c-1.532-0.146-3.021-0.348-4.523-0.543
			c-2.982-0.434-5.933-0.945-8.852-1.557c-2.922-0.603-5.812-1.283-8.697-1.976l-4.293-1.149c-1.434-0.37-2.853-0.787-4.263-1.226
			c-11.315-3.428-22.325-7.625-33.036-12.432c-10.7-4.771-21.226-10.316-31.019-16.879c-9.82-6.535-19.023-13.984-27.493-22.17
			c-8.488-8.176-16.128-17.176-23.16-26.588c-3.543-4.691-6.797-9.586-9.988-14.514c-3.089-4.992-6.123-10.019-8.877-15.199
			c-1.43-2.562-2.722-5.193-4.076-7.794c-1.275-2.638-2.601-5.253-3.805-7.925c-2.49-5.303-4.815-10.68-7.005-16.104
			c-2.196-5.423-4.253-10.899-6.217-16.386l-2.922-8.209c-0.979-2.701-1.942-5.463-3.005-7.94l-0.013-0.029
			c-0.705-1.644,0.055-3.548,1.699-4.253c1.644-0.705,3.548,0.055,4.254,1.698C184.605,1302.976,184.617,1303.004,184.622,1303.016z
			"/>
	</g>
	<path style="fill:#95A6DB;" d="M2531.672,1095.57c-4.984,0.051-9.844,0.557-14.564,1.492l7.549,718.131
		c0,0,287.253,7.002,325.617,6.598c64.574-0.678,116.283-62.857,115.484-138.876c-0.799-76.007-53.803-137.085-118.379-136.406
		c-8.818,0.093-17.391,1.335-25.621,3.604c0.474-5.468,0.703-11.021,0.645-16.648c-0.663-63.068-35.746-116.28-83.951-135.13
		c4.178-8.286,6.536-18.006,6.428-28.364c-0.316-30.1-21.301-54.275-46.869-54.007c-3.934,0.042-7.738,0.669-11.371,1.792
		c0.65-5.623,0.966-11.366,0.904-17.216c-0.575-54.749-33.461-100.249-77.045-111.603c0.869-4.839,1.314-9.83,1.262-14.937
		C2611.299,1130.23,2575.443,1095.109,2531.672,1095.57z"/>
	<path style="fill:#494C7F;" d="M2998.473,1865.721H147.083c-14.188,0-25.69-11.502-25.69-25.691l0,0
		c0-14.188,11.502-25.689,25.69-25.689h2851.389c14.188,0,25.689,11.502,25.689,25.689l0,0
		C3024.162,1854.219,3012.66,1865.721,2998.473,1865.721z"/>
	<g>
		<path style="fill:#FFFFFF;" d="M1593.902,1628.271H970.785V364.811c0-41.006,33.243-74.25,74.249-74.25h474.619
			c41.007,0,74.249,33.243,74.249,74.25V1628.271z"/>
		<path style="fill:#E3EAFF;" d="M1533.809,521.931h-505.301v-130.89c0-18.878,15.303-34.181,34.18-34.181h436.941
			c18.877,0,34.18,15.303,34.18,34.181V521.931z"/>
		<rect x="1028.508" y="604.863" style="fill:#E3EAFF;" width="505.301" height="165.07"/>
		<rect x="1028.508" y="852.865" style="fill:#E3EAFF;" width="505.301" height="165.071"/>
		<rect x="1028.508" y="1100.867" style="fill:#E3EAFF;" width="505.301" height="165.07"/>
		<g>
			<rect x="1038.51" y="381.377" style="fill:#C2D1FF;" width="36.528" height="140.562"/>
			<rect x="1074.432" y="392.603" style="fill:#C2D1FF;" width="26.425" height="129.336"/>
			
				<rect x="1237.767" y="381.377" transform="matrix(-1 -1.224647e-16 1.224647e-16 -1 2512.0615 903.3158)" style="fill:#C2D1FF;" width="36.528" height="140.562"/>
			
				<rect x="1406.37" y="381.377" transform="matrix(-1 -1.224647e-16 1.224647e-16 -1 2849.2686 903.3158)" style="fill:#C2D1FF;" width="36.528" height="140.562"/>
			
				<rect x="1486.027" y="381.459" transform="matrix(-0.9411 -0.3383 0.3383 -0.9411 2754.9478 1383.5856)" style="fill:#C2D1FF;" width="24.011" height="140.562"/>
			
				<rect x="1343.003" y="413.898" transform="matrix(-1 -1.224647e-16 1.224647e-16 -1 2712.8394 935.8368)" style="fill:#C2D1FF;" width="26.833" height="108.041"/>
			
				<rect x="1326.229" y="387.466" transform="matrix(-1 -1.224647e-16 1.224647e-16 -1 2669.376 909.4047)" style="fill:#CFDBFF;" width="16.917" height="134.473"/>
			
				<rect x="1211.947" y="392.603" transform="matrix(-1 -1.224647e-16 1.224647e-16 -1 2450.3198 914.5414)" style="fill:#CFDBFF;" width="26.425" height="129.336"/>
			
				<rect x="1274.25" y="407.06" transform="matrix(-1 -1.224647e-16 1.224647e-16 -1 2574.9263 928.9989)" style="fill:#CFDBFF;" width="26.425" height="114.879"/>
			
				<rect x="1299.993" y="397.218" transform="matrix(-1 -1.224647e-16 1.224647e-16 -1 2626.4116 919.1566)" style="fill:#CFDBFF;" width="26.425" height="124.721"/>
			
				<rect x="1369.795" y="366.422" transform="matrix(-1 -1.224647e-16 1.224647e-16 -1 2776.3291 888.3612)" style="fill:#CFDBFF;" width="36.738" height="155.517"/>
			
				<rect x="1117.673" y="392.193" transform="matrix(0.9601 -0.2795 0.2795 0.9601 -82.7241 333.5984)" style="fill:#C2D1FF;" width="21.374" height="129.337"/>
		</g>
		<g>
			<rect x="1049.736" y="617.093" style="fill:#CFDBFF;" width="43.184" height="152.103"/>
			<rect x="1092.646" y="632.942" style="fill:#C2D1FF;" width="33.141" height="136.253"/>
			<rect x="1125.12" y="623.664" style="fill:#C2D1FF;" width="33.141" height="145.531"/>
			<rect x="1157.979" y="660.39" style="fill:#CFDBFF;" width="33.142" height="108.806"/>
			<rect x="1191.225" y="634.875" style="fill:#C2D1FF;" width="33.141" height="134.32"/>
			<rect x="1256.944" y="613.613" style="fill:#C2D1FF;" width="33.141" height="155.583"/>
			<rect x="1290.19" y="622.119" style="fill:#C2D1FF;" width="33.141" height="147.077"/>
			
				<rect x="1342.847" y="621.699" transform="matrix(0.9633 -0.2683 0.2683 0.9633 -136.8395 389.0852)" style="fill:#C2D1FF;" width="24.788" height="147.077"/>
			<rect x="1224.085" y="649.565" style="fill:#CFDBFF;" width="33.141" height="119.63"/>
			<rect x="1432.84" y="649.565" style="fill:#CFDBFF;" width="33.141" height="119.63"/>
			<rect x="1465.7" y="626.757" style="fill:#CFDBFF;" width="28.501" height="142.439"/>
			<rect x="1493.534" y="615.933" style="fill:#C2D1FF;" width="28.501" height="153.263"/>
		</g>
		<rect x="1055.375" y="889.824" style="fill:#C2D1FF;" width="27.865" height="127.713"/>
		<rect x="1121.591" y="864.879" style="fill:#C2D1FF;" width="27.864" height="152.658"/>
		<rect x="1148.461" y="875.435" style="fill:#C2D1FF;" width="20.802" height="142.102"/>
		<rect x="1169.093" y="896.547" style="fill:#C2D1FF;" width="20.802" height="120.99"/>
		<rect x="1188.766" y="884.552" style="fill:#C2D1FF;" width="20.801" height="132.985"/>
		<rect x="1082.726" y="878.314" style="fill:#CFDBFF;" width="19.842" height="139.223"/>
		<rect x="1028.868" y="1137.619" style="fill:#C2D1FF;" width="27.865" height="127.711"/>
		<rect x="1056.218" y="1126.109" style="fill:#CFDBFF;" width="19.842" height="139.221"/>
		<rect x="1101.918" y="899.906" style="fill:#CFDBFF;" width="19.842" height="117.631"/>
		<rect x="1209.398" y="899.906" style="fill:#CFDBFF;" width="19.842" height="117.631"/>
		<rect x="1369.766" y="869.411" style="fill:#C2D1FF;" width="20.802" height="148.126"/>
		<rect x="1415.604" y="861.184" style="fill:#C2D1FF;" width="35.815" height="156.353"/>
		<rect x="1390.398" y="886.514" style="fill:#CFDBFF;" width="25.761" height="131.023"/>
		
			<rect x="1247.078" y="900.664" transform="matrix(0.9499 -0.3126 0.3126 0.9499 -237.0893 440.1231)" style="fill:#CFDBFF;" width="14.008" height="117.631"/>
		
			<rect x="1341.964" y="926.457" transform="matrix(-0.9499 -0.3126 0.3126 -0.9499 2326.4626 2317.0684)" style="fill:#C2D1FF;" width="14.008" height="91.175"/>
		
			<rect x="1296.803" y="1124.371" transform="matrix(-1 -1.224647e-16 1.224647e-16 -1 2630.1338 2389.3047)" style="fill:#C2D1FF;" width="36.528" height="140.563"/>
		
			<rect x="1270.983" y="1135.598" transform="matrix(-1 -1.224647e-16 1.224647e-16 -1 2568.3921 2400.5313)" style="fill:#CFDBFF;" width="26.425" height="129.336"/>
		
			<rect x="1333.286" y="1150.055" transform="matrix(-1 -1.224647e-16 1.224647e-16 -1 2692.9976 2414.9883)" style="fill:#CFDBFF;" width="26.425" height="114.879"/>
		
			<rect x="1359.029" y="1140.213" transform="matrix(-1 -1.224647e-16 1.224647e-16 -1 2744.4839 2405.1465)" style="fill:#CFDBFF;" width="26.425" height="124.721"/>
	</g>
	<g>
		<path style="fill:#FFFFFF;" d="M2541.98,1733.809h-859.805V502.857c0-47.804,38.754-86.558,86.559-86.558h686.689
			c47.804,0,86.557,38.753,86.557,86.558V1733.809z"/>
		<path style="fill:#E3EAFF;" d="M2459.061,644.175h-697.236V521.443c0-22.006,17.84-39.846,39.846-39.846h617.545
			c22.006,0,39.846,17.839,39.846,39.846V644.175z"/>
		<rect x="1761.824" y="725.854" style="fill:#E3EAFF;" width="697.236" height="162.578"/>
		<rect x="1761.824" y="970.112" style="fill:#E3EAFF;" width="697.236" height="162.578"/>
		<rect x="1761.824" y="1215.402" style="fill:#E3EAFF;" width="688.365" height="160.509"/>
		<g>
			
				<rect x="2205.51" y="996.736" transform="matrix(-1 -1.224647e-16 1.224647e-16 -1 4446.3135 2129.2808)" style="fill:#C2D1FF;" width="35.294" height="135.809"/>
			
				<rect x="2180.564" y="1007.582" transform="matrix(-1 -1.224647e-16 1.224647e-16 -1 4386.6602 2140.127)" style="fill:#C2D1FF;" width="25.531" height="124.963"/>
			<rect x="2012.992" y="996.736" style="fill:#C2D1FF;" width="35.293" height="135.809"/>
			<rect x="1850.09" y="996.736" style="fill:#C2D1FF;" width="35.293" height="135.809"/>
			
				<rect x="1785.22" y="996.815" transform="matrix(0.941 -0.3383 0.3383 0.941 -254.2379 670.5729)" style="fill:#C2D1FF;" width="23.199" height="135.809"/>
			<rect x="1920.682" y="1028.158" style="fill:#C2D1FF;" width="25.926" height="104.387"/>
			<rect x="1946.468" y="1002.619" style="fill:#CFDBFF;" width="16.345" height="129.926"/>
			<rect x="2047.699" y="1007.582" style="fill:#CFDBFF;" width="25.531" height="124.963"/>
			<rect x="1987.503" y="1021.551" style="fill:#CFDBFF;" width="25.532" height="110.994"/>
			<rect x="1962.631" y="1012.041" style="fill:#CFDBFF;" width="25.531" height="120.504"/>
			<rect x="1885.225" y="982.287" style="fill:#CFDBFF;" width="35.496" height="150.258"/>
			
				<rect x="2143.666" y="1007.187" transform="matrix(-0.9601 -0.2795 0.2795 -0.9601 3923.1802 2698.729)" style="fill:#C2D1FF;" width="20.651" height="124.963"/>
		</g>
		
			<rect x="2179.192" y="509.493" transform="matrix(-1 -1.224647e-16 1.224647e-16 -1 4399.1602 1153.5927)" style="fill:#CFDBFF;" width="40.775" height="134.607"/>
		
			<rect x="2302.965" y="493.588" transform="matrix(-1 -1.224647e-16 1.224647e-16 -1 4634.1992 1137.688)" style="fill:#CFDBFF;" width="28.27" height="150.512"/>
		
			<rect x="2330.541" y="516.034" transform="matrix(-1 -1.224647e-16 1.224647e-16 -1 4681.6563 1160.1338)" style="fill:#CFDBFF;" width="20.574" height="128.066"/>
		
			<rect x="2350.421" y="509.233" transform="matrix(-1 -1.224647e-16 1.224647e-16 -1 4721.417 1153.3335)" style="fill:#C2D1FF;" width="20.575" height="134.867"/>
		
			<rect x="2406.516" y="516.931" transform="matrix(-1 -1.224647e-16 1.224647e-16 -1 4838.625 1161.0313)" style="fill:#C2D1FF;" width="25.594" height="127.169"/>
		
			<rect x="2391.109" y="527.594" transform="matrix(-1 -1.224647e-16 1.224647e-16 -1 4798.1846 1171.6938)" style="fill:#CFDBFF;" width="15.966" height="116.506"/>
		
			<rect x="2370.27" y="502.949" transform="matrix(-1 -1.224647e-16 1.224647e-16 -1 4761.1133 1147.0488)" style="fill:#CFDBFF;" width="20.574" height="141.151"/>
		
			<rect x="2148.158" y="523.52" transform="matrix(-1 -1.224647e-16 1.224647e-16 -1 4327.6084 1167.6201)" style="fill:#C2D1FF;" width="31.292" height="120.58"/>
		
			<rect x="2117.496" y="515.309" transform="matrix(-1 -1.224647e-16 1.224647e-16 -1 4266.2852 1159.4087)" style="fill:#C2D1FF;" width="31.293" height="128.792"/>
		
			<rect x="2086.469" y="547.81" transform="matrix(-1 -1.224647e-16 1.224647e-16 -1 4204.2305 1191.9106)" style="fill:#CFDBFF;" width="31.293" height="96.29"/>
		
			<rect x="2055.078" y="525.23" transform="matrix(-1 -1.224647e-16 1.224647e-16 -1 4141.4473 1169.33)" style="fill:#C2D1FF;" width="31.291" height="118.87"/>
		
			<rect x="1993.023" y="506.414" transform="matrix(-1 -1.224647e-16 1.224647e-16 -1 4017.3398 1150.5146)" style="fill:#C2D1FF;" width="31.293" height="137.686"/>
		
			<rect x="1961.632" y="513.941" transform="matrix(-1 -1.224647e-16 1.224647e-16 -1 3954.5557 1158.041)" style="fill:#C2D1FF;" width="31.292" height="130.159"/>
		<polygon style="fill:#C2D1FF;" points="1901.599,638.401 1924.146,644.287 1961.404,518.898 1938.857,513.013 		"/>
		<polygon style="fill:#C2D1FF;" points="2268.764,641.389 2255.998,644.55 2219.686,518.898 2232.451,515.738 		"/>
		
			<rect x="2011.604" y="752.184" transform="matrix(-1 -1.224647e-16 1.224647e-16 -1 4063.9824 1638.976)" style="fill:#CFDBFF;" width="40.775" height="134.608"/>
		
			<rect x="2140.946" y="738.009" transform="matrix(-1 -1.224647e-16 1.224647e-16 -1 4312.2842 1624.8008)" style="fill:#CFDBFF;" width="30.392" height="148.783"/>
		
			<rect x="2170.848" y="748.439" transform="matrix(-1 -1.224647e-16 1.224647e-16 -1 4368.6104 1635.231)" style="fill:#C2D1FF;" width="26.915" height="138.353"/>
		
			<rect x="2274.461" y="748.439" transform="matrix(-1 -1.224647e-16 1.224647e-16 -1 4575.8369 1635.231)" style="fill:#C2D1FF;" width="26.915" height="138.353"/>
		
			<rect x="2301.582" y="767.215" transform="matrix(-1 -1.224647e-16 1.224647e-16 -1 4622.4287 1654.0073)" style="fill:#C2D1FF;" width="19.265" height="119.577"/>
		
			<rect x="2375.988" y="757.479" transform="matrix(-1 -1.224647e-16 1.224647e-16 -1 4769.1563 1644.271)" style="fill:#C2D1FF;" width="17.18" height="129.313"/>
		
			<rect x="2321.053" y="735.227" transform="matrix(-1 -1.224647e-16 1.224647e-16 -1 4656.502 1622.019)" style="fill:#CFDBFF;" width="14.396" height="151.565"/>
		
			<rect x="2334.961" y="744.962" transform="matrix(-1 -1.224647e-16 1.224647e-16 -1 4689.8818 1631.7539)" style="fill:#CFDBFF;" width="19.96" height="141.83"/>
		
			<rect x="2354.432" y="788.076" transform="matrix(-1 -1.224647e-16 1.224647e-16 -1 4730.9102 1674.868)" style="fill:#CFDBFF;" width="22.047" height="98.716"/>
		
			<rect x="2197.273" y="731.75" transform="matrix(-1 -1.224647e-16 1.224647e-16 -1 4414.5068 1618.5415)" style="fill:#CFDBFF;" width="19.96" height="155.042"/>
		
			<rect x="2252.003" y="758.174" transform="matrix(-1 -1.224647e-16 1.224647e-16 -1 4526.9541 1644.9663)" style="fill:#CFDBFF;" width="22.948" height="128.618"/>
		
			<rect x="1980.568" y="766.211" transform="matrix(-1 -1.224647e-16 1.224647e-16 -1 3992.4297 1653.0029)" style="fill:#C2D1FF;" width="31.293" height="120.581"/>
		
			<rect x="1949.906" y="758" transform="matrix(-1 -1.224647e-16 1.224647e-16 -1 3931.1055 1644.792)" style="fill:#C2D1FF;" width="31.293" height="128.792"/>
		<polygon style="fill:#C2D1FF;" points="2101.175,884.08 2088.408,887.242 2052.096,761.59 2064.861,758.429 		"/>
		<polygon style="fill:#CFDBFF;" points="1949.834,882.267 1931.129,887.081 1894.242,761.59 1912.947,756.775 		"/>
		
			<rect x="2024.051" y="538.23" transform="matrix(-1 -1.224647e-16 1.224647e-16 -1 4079.3936 1182.33)" style="fill:#CFDBFF;" width="31.292" height="105.87"/>
		
			<rect x="2252.003" y="1255.155" transform="matrix(-1 -1.224647e-16 1.224647e-16 -1 4535.2979 2630.8904)" style="fill:#C2D1FF;" width="31.292" height="120.58"/>
		
			<rect x="2221.342" y="1246.944" transform="matrix(-1 -1.224647e-16 1.224647e-16 -1 4473.9756 2622.6797)" style="fill:#C2D1FF;" width="31.292" height="128.791"/>
		
			<rect x="2190.314" y="1279.445" transform="matrix(-1 -1.224647e-16 1.224647e-16 -1 4411.9219 2655.1807)" style="fill:#CFDBFF;" width="31.293" height="96.29"/>
		
			<rect x="2158.922" y="1256.865" transform="matrix(-1 -1.224647e-16 1.224647e-16 -1 4349.1367 2632.6006)" style="fill:#C2D1FF;" width="31.293" height="118.87"/>
		
			<rect x="2096.869" y="1238.049" transform="matrix(-1 -1.224647e-16 1.224647e-16 -1 4225.0303 2613.7842)" style="fill:#C2D1FF;" width="31.292" height="137.686"/>
		
			<rect x="2127.896" y="1269.866" transform="matrix(-1 -1.224647e-16 1.224647e-16 -1 4287.083 2645.6016)" style="fill:#CFDBFF;" width="31.292" height="105.869"/>
		
			<rect x="1826.939" y="538.23" transform="matrix(-1 -1.224647e-16 1.224647e-16 -1 3685.1699 1182.33)" style="fill:#CFDBFF;" width="31.291" height="105.87"/>
		
			<rect x="1800.291" y="518.045" transform="matrix(-1 -1.224647e-16 1.224647e-16 -1 3627.4961 1162.145)" style="fill:#CFDBFF;" width="26.914" height="126.055"/>
		
			<rect x="1774.011" y="508.466" transform="matrix(-1 -1.224647e-16 1.224647e-16 -1 3574.9336 1152.5664)" style="fill:#C2D1FF;" width="26.912" height="135.634"/>
		<rect x="1762.447" y="772.083" style="fill:#CFDBFF;" width="20.166" height="114.74"/>
		<rect x="1781.918" y="751.916" style="fill:#C2D1FF;" width="22.253" height="134.906"/>
		<rect x="1802.78" y="759.565" style="fill:#C2D1FF;" width="26.425" height="127.257"/>
		<rect x="1852.152" y="733.141" style="fill:#C2D1FF;" width="26.426" height="153.682"/>
		<rect x="1877.883" y="746.354" style="fill:#C2D1FF;" width="18.775" height="140.469"/>
		<rect x="1829.205" y="775.559" style="fill:#CFDBFF;" width="22.947" height="111.263"/>
	</g>
	<g>
		<polygon style="fill:#4361BF;" points="232.757,1814.714 1193.247,1814.714 713.002,830.953 		"/>
		<path style="fill:#748DDB;" d="M2393.828,1814.714H1157.956L699.83,736.093h1187.611c29.261,0,55.689,17.488,67.128,44.421
			L2393.828,1814.714z"/>
		<path style="fill:#5A79DB;" d="M1096.67,1797.508L697.073,868.747l-438.586,929.658c-4.698,9.957-14.72,16.309-25.73,16.309
			h-23.438c-12.657,0-21.072-13.093-15.814-24.606L664.785,758.104c6.244-13.672,20.019-22.321,35.045-22.011
			c15.026,0.312,28.43,9.529,34.1,23.448l429.872,1031.098c4.774,11.453-3.639,24.075-16.046,24.075h-24.952
			C1111.438,1814.714,1101.162,1807.949,1096.67,1797.508z"/>
		<path style="fill:#E3EAFF;" d="M697.078,868.747c0,0-27.59,402.899-132.301,693.931
			c-53.496,148.676-115.662,252.036-115.662,252.036s-24.526,1.907-32.705,1.577c-16.961-0.682-19.503-6.748-25.435-3.787
			c-5.712,2.856-25.619,1.506-25.619,1.506s7.288-7.365,14.163-29.253c-11.959,21.386-23.153,29.957-34.593,29.957
			c-8.126,0-20.88-1.761-22.68-2.21c-1.977-0.492-11.948,0.627-18.665,1.465l-13.424-0.272c-4.384-0.983-9.145-2.751-9.145-5.775
			c-2.658,1.967-9.783,3.923-16.667,5.241l-31.592,1.552L697.078,868.747z"/>
		<path style="fill:#E3EAFF;" d="M1109.466,1814.715c-25.131,0-51.571-5.63-51.571-5.63s-8.945,3.274-23.729,4.645
			c-14.794,1.381-18.582-1.716-24.42-9.28c-1.035,5.157-8.601,10.265-20.297,8.944c-11.698-1.328-25.456-2.75-37.153,0.336
			c-11.688,3.097-28.543-4.123-31.566-12.389c-4.06,7.953-10.913,11.133-20.423,13.373h-7.512c-5.713,0-10.864-3.434-13.054-8.711
			c-11.293-27.213-47.081-116.352-85.098-241.234c-90.085-295.886-97.565-699.664-97.565-699.664L1109.466,1814.715z"/>
		<path style="fill:#5A79DB;" d="M1380.989,1645.447h-155.177L907.75,869.386c-2.77-6.758,2.201-14.167,9.505-14.167h128.877
			c6.647,0,12.635,4.018,15.156,10.169L1380.989,1645.447z"/>
		<path style="fill:#95A6DB;" d="M471.913,1582.223c0,0,131.839-285.088,180.046-504.818
			C612.179,1297.135,546.021,1451.039,471.913,1582.223z"/>
		<path style="fill:#95A6DB;" d="M570.062,1196.123c0,0-53.002,154.475-105.147,247.172
			C499.287,1400.037,554.319,1270.297,570.062,1196.123z"/>
		<path style="fill:#95A6DB;" d="M884.945,1445.188c0,0,65.325,204.119,130.582,303.838
			C969.464,1716.313,892.552,1554.078,884.945,1445.188z"/>
		<path style="fill:#95A6DB;" d="M297.237,1777.288c0,0,61.896-104.229,103.641-180.485
			C383.604,1670.25,314.511,1766.291,297.237,1777.288z"/>
	</g>
	<g>
		<polygon style="fill:#0E6A41;" points="732.387,1436.691 783.839,1489.262 727.206,1463.805 		"/>
		<path style="fill:#201D40;" d="M664.002,1685.697c20.98-3.392,54.457,5.835,73.176-4.231
			c36.369,18.358,82.254,43.151,82.254,43.151c-22.73,24.521-95.108,66.639-95.108,66.639
			c-38.39-18.17-76.383-37.472-118.509-42.881c4.052-21.037,11.751-41.457,21.855-60.348
			C639.817,1688.43,652.002,1687.637,664.002,1685.697z"/>
		<path style="fill:#3F964F;" d="M690.992,1410.433c18.341,8.921,25.123,14.308,41.395,26.259
			c-1.893,29.813,3.421,66.01-5.388,94.557c-14.383,46.607-3.427,117.142,25.24,156.607
			c-21.994,68.543-128.217,65.288-174.493,57.774c-23.097-50.503-22.616-112.578-39.983-202.679l6.051-114.764
			c26.822-18.715,68.023-24.43,68.023-24.43S668.328,1399.409,690.992,1410.433z"/>
		<path style="fill:#F37A50;" d="M854.204,1756.151c-33.751,26.538-72.956,51.548-111.292,70.883
			c-16.726-13.692-18.637-18.47-23.119-39.616c28.945-26.104,58.688-49.006,88.62-73.973
			C826.167,1729.137,854.204,1756.151,854.204,1756.151z"/>
		<path style="fill:#F37A50;" d="M864.516,1825.479c-3.628,15.718-8.207,30.732-13.017,46.13
			c-36.448-5.124-73.295-13.583-107.397-27.435c2.603-22.166,4.601-44.372,7.204-66.537
			C785.408,1800.816,824.125,1817.178,864.516,1825.479z"/>
		<path style="fill:#201D40;" d="M592.105,1693.045l161.124,91.762l-20.326,45.188c-21.74,10.925-96.248,21.558-132.475,0.89
			C558.719,1807.088,563.968,1704.887,592.105,1693.045z"/>
		<g>
			<g>
				<g>
					<g>
						<path style="fill:#FFFFFF;" d="M669.146,1867.875l-28.123-54.891c0,0,17.024,0.27,26.546,18.856
							C673.977,1844.346,672.733,1859.896,669.146,1867.875z"/>
					</g>
				</g>
			</g>
			<path style="fill:#E62552;" d="M719.903,1810.07c4.528,8.797,1.621,24.807,0.311,25.603
				c-5.329,3.237-15.112,10.737-19.333,13.749c-3.713,2.649-24.366,21.694-24.366,21.694l-10.787,2.073l-19.268-35.358
				l-5.392-29.036c0,0,13.605-1.16,22.029-3.336c11.325-2.93,23.608-9.17,34.759-13.108
				C699.598,1791.736,713.776,1798.17,719.903,1810.07z"/>
			<g>
				<g>
					<g>
						<path style="fill:#FFFFFF;" d="M659.664,1835.672c7.215,14.066,9.271,37.354,16.853,35.444c0,0-7.11,14.388-20.896,14.874
							c-5.898-5.094-14.917-19.073-23.35-33.393c-8.433-14.32-13.354-33.111-13.354-33.111s13.519-9.996,22.154-10.691
							C639.526,1811.777,653.607,1823.861,659.664,1835.672z"/>
					</g>
				</g>
			</g>
		</g>
		<g>
			<path style="fill:#2C2858;" d="M592.105,1693.047c34.104-21.588,93.465,53.275,228.885,113.391
				c-8.892,16.541-18.257,40.992-26.093,58.89c0,0-114.642-22.668-181.095-69.498c-37.671,7.117-42.349-20.044-42.612-21.806
				C566.821,1738.703,576.84,1702.709,592.105,1693.047z"/>
		</g>
		<path style="fill:#2C2858;" d="M917.956,1726.552c-18.525,25.045-121.694,74.792-121.694,74.792l-37.246-54.291
			c17.096-12.808,105.499-80.6,134.03-80.592C909.261,1670.158,941.981,1694.072,917.956,1726.552z"/>
		<g>
			<g>
				<g>
					<g>
						<path style="fill:#FFFFFF;" d="M913.919,1833.55l-20.877,64.747c0,0-13.068-13.488-5.999-35.412
							C891.799,1848.133,904.898,1836.975,913.919,1833.55z"/>
					</g>
				</g>
			</g>
			<path style="fill:#E62552;" d="M829.244,1839.045c3.329-10.393,18.083-20.611,19.726-20.211
				c6.681,1.632,20.162,3.412,25.803,4.356c4.962,0.83,35.925,2.084,35.925,2.084l10.03,6.797l-12.549,42.605l-18.441,26.853
				c0,0-11.517-9.706-19.785-14.579c-11.117-6.549-25.565-11.262-37.334-16.889C830.782,1869.184,824.742,1853.105,829.244,1839.045
				z"/>
			<g>
				<g>
					<g>
						<path style="fill:#FFFFFF;" d="M896.197,1866.063c5.344-16.598,21.905-36.367,14.502-40.789c0,0,16.767-5.678,27.899,4.697
							c0.628,8.572-3.242,26.51-7.833,44.258c-4.591,17.746-15.41,36.24-15.41,36.24s-18.341-2.748-25.618-8.939
							C893.267,1900.406,891.708,1879.999,896.197,1866.063z"/>
					</g>
				</g>
			</g>
		</g>
		<path style="fill:#FFFFFF;" d="M635.864,1316.121c3.056,0.112,6.077,0.658,8.977,1.625c0.795,0.265,1.226,1.123,0.961,1.918
			c-0.212,0.638-0.805,1.041-1.44,1.041c-0.16,0-0.322-0.026-0.48-0.079c-2.628-0.874-5.364-1.37-8.131-1.472
			c-0.838-0.031-1.492-0.736-1.461-1.574C634.323,1316.743,635.04,1316.078,635.864,1316.121z"/>
		<g>
			<path id="v-2_3_" style="fill:#F37A50;" d="M640.205,1354.18h0.03l25.213,0.092l5.71,59.555c0,0-8.734,16.311-29.433,15.541
				c-20.699-0.769-31.387-15.366-31.387-15.366l1.353-62.503L640.205,1354.18z"/>
			<g>
				<path style="fill:#F37A50;" d="M602.442,1315.123c-1.848,41.727,23.222,76.73,55.994,78.182
					c32.773,1.451,60.838-31.199,62.687-72.926c1.848-41.728-23.222-76.73-55.994-78.182
					C632.355,1240.745,604.29,1273.396,602.442,1315.123z"/>
				<path d="M703.809,1326.514c0.573,3.098,3.549,5.146,6.647,4.572c3.098-0.572,5.146-3.549,4.572-6.646
					c-0.573-3.099-3.549-5.147-6.647-4.572C705.284,1320.439,703.236,1323.415,703.809,1326.514z"/>
				<path d="M657.688,1324.788c0.62,3.354,3.842,5.569,7.196,4.95c3.354-0.621,5.57-3.842,4.949-7.195
					c-0.62-3.355-3.841-5.57-7.195-4.951C659.285,1318.213,657.068,1321.434,657.688,1324.788z"/>
				<path style="fill:#DE623C;" d="M692.163,1331.236c4.521,8.721,10.283,19.38,10.283,19.38s-3.743,8.512-15.304,7.706
					c5.053-1.629,10.151-4.529,8.684-11.209C694.356,1340.436,692.163,1331.236,692.163,1331.236z"/>
				<g>
					<path style="fill:#201D40;" d="M648.977,1316.767c-0.199-0.09-0.391-0.205-0.571-0.344c-1.243-0.963-1.47-2.752-0.507-3.994
						c2.629-3.392,9.695-8.875,17.621-5.334c1.437,0.668,2.08,2.326,1.438,3.76c-0.641,1.437-2.324,2.08-3.76,1.44
						c-5.87-2.623-10.75,3.559-10.799,3.621C651.576,1316.979,650.15,1317.299,648.977,1316.767z"/>
				</g>
				<g>
					<path style="fill:#201D40;" d="M703.341,1313.057c-0.372-0.168-0.704-0.434-0.957-0.791c-0.757-1.069-0.503-2.55,0.566-3.307
						c0.168-0.118,4.162-2.892,8.813-1.744c3.177,0.783,5.773,3.115,7.716,6.928c0.595,1.168,0.13,2.597-1.037,3.191
						c-1.167,0.594-2.596,0.13-3.191-1.037c-1.289-2.531-2.845-4.037-4.625-4.476c-2.528-0.624-4.912,0.996-4.936,1.012
						C704.977,1313.338,704.083,1313.392,703.341,1313.057z"/>
				</g>
				<path style="fill:#201D40;" d="M595.074,1279.999c3.446-39.456,41.433-45.848,41.433-45.848s-7.498-4.237-3.466-15.634
					c5.024,4.473,11.642,7.309,18.348,7.828c45.188,3.512,71.838,15.795,64.32,32.411c-2.676,5.913,25.539,13.698,5.39,52.504
					c-0.544-3.099-1.08-23.474-9-29.023c-7.948-5.568-5.339,9.559-24.558,3.856c-19.392-5.754-30.811-16.26-46.622-11.012
					c-12.79,5.031-40.015,55.076-37.671,57.471C595.968,1325.116,593.56,1297.34,595.074,1279.999z"/>
				<path style="fill:#201D40;" d="M717.47,1342.688c0,0-7.729,21.479-13.619,26.535c0.651-9.723-10.014-3.932-16.664-5.94
					c-16.066-4.854-41.128-22.283-54.127-0.773c-21.178-2.519-24.904-48.668-24.904-48.668
					c-21.11,43.818-0.059,76.596,50.202,89.299C694.316,1412.229,717.536,1377.414,717.47,1342.688z"/>
				<g>
					<path style="fill:#DE623C;" d="M666.297,1370.705c-2.673-2.07-5.243-4.707-7.698-7.902c-0.638-0.832-0.482-2.023,0.349-2.662
						c0.831-0.637,2.022-0.482,2.661,0.35c5.441,7.084,11.38,11.086,17.653,11.898c7.755,1.004,13.464-3.328,13.521-3.373
						c0.827-0.639,2.018-0.49,2.661,0.334c0.643,0.826,0.499,2.013-0.325,2.658c-0.278,0.218-6.931,5.333-16.273,4.154
						C674.463,1375.607,670.266,1373.781,666.297,1370.705z"/>
				</g>
				<g>
					<path style="fill:#F37A50;" d="M616.995,1310.066c5.819,7.912,5.287,18.188-1.188,22.949
						c-6.475,4.762-16.442,2.209-22.261-5.704c-5.819-7.913-5.287-18.188,1.188-22.949
						C601.208,1299.6,611.176,1302.154,616.995,1310.066z"/>
				</g>
			</g>
			<g>
				<path style="fill:#DE623C;" d="M610.338,1330.131c-0.266,0-0.537-0.052-0.799-0.16c-1.068-0.441-1.576-1.665-1.134-2.733
					c1.815-4.392,1.968-7.758,0.455-10.003c-2.47-3.663-8.757-3.655-8.825-3.659c-1.139,0.02-2.1-0.917-2.111-2.07
					c-0.012-1.154,0.91-2.1,2.063-2.113c0.345-0.006,8.583-0.044,12.33,5.483c2.36,3.482,2.346,8.18-0.044,13.961
					C611.938,1329.642,611.16,1330.131,610.338,1330.131z"/>
			</g>
		</g>
		<g id="c_3_">
			<g id="c_7_">
				<g id="c_9_">
					<path id="c_11_" style="fill:#E62552;" d="M793.724,1619.287c0.306,0.094,0.614,0.154,0.921,0.187h1.008
						c1.848-0.196,3.493-1.46,4.079-3.346l47.246-152.323c0.096-0.307,0.155-0.615,0.188-0.922c0.021-0.204,0.01-0.402,0.006-0.602
						c-0.003-0.12,0.012-0.242,0-0.361c-0.01-0.107-0.043-0.209-0.06-0.315c-0.287-1.73-1.497-3.244-3.287-3.803
						c-0.288-0.09-0.587-0.158-0.898-0.193c-0.348-0.037-0.69-0.034-1.025,0H722.965l-47.661,161.864h118.502L793.724,1619.287z"/>
					<path id="c_10_" style="fill:#8A284C;" d="M724.046,1457.799c-2.532-0.785-5.221,0.629-6.008,3.16l-46.949,151.943
						l-0.106,0.357c-0.779,2.521,0.627,5.191,3.14,5.986l0.005,0.01c2.531,0.787,5.221-0.628,6.008-3.158l47.07-152.293
						C727.993,1461.273,726.579,1458.586,724.046,1457.799z"/>
				</g>
				<path style="fill:#8A284C;" d="M815.306,1473.67c-1.568,4.887,0.464,9.909,4.54,11.219c4.076,1.307,8.651-1.594,10.221-6.482
					c1.569-4.887-0.464-9.91-4.54-11.219C821.451,1465.879,816.875,1468.781,815.306,1473.67z"/>
				<path style="fill:#8A284C;" d="M800.237,1474.43c-1.064,3.317,0.315,6.726,3.081,7.613c2.766,0.888,5.871-1.082,6.936-4.398
					c1.064-3.316-0.315-6.725-3.081-7.611C804.407,1469.145,801.302,1471.113,800.237,1474.43z"/>
			</g>
			<path id="c_6_" style="fill:#F37A50;" d="M813.903,1554.438c0.444-0.295,0.927-0.48,1.423-0.62
				c-0.051-0.074-0.107-0.143-0.157-0.22c-2.959-4.463-2.761-9.801,0.441-11.922c0.525-0.348,1.103-0.576,1.708-0.715
				c-0.832-3.305-0.086-6.459,2.2-7.975c0.908-0.6,1.961-0.868,3.07-0.857c-1.046-3.246-0.215-6.655,2.345-8.352
				c3.203-2.119,7.847-0.751,10.372,3.059c2.526,3.81,1.977,8.617-1.226,10.738c-0.811,0.537-1.714,0.85-2.652,0.955
				c2.131,4.154,1.702,8.701-1.194,10.619c-0.526,0.349-1.103,0.578-1.707,0.717c0.832,3.305,0.086,6.459-2.201,7.975
				c-0.843,0.557-1.811,0.83-2.833,0.858c1.058,2.841,0.386,5.899-1.865,7.392c-2.706,1.791-6.627,0.635-8.76-2.584
				C810.735,1560.289,811.198,1556.229,813.903,1554.438z"/>
			<path style="fill:#F37A50;" d="M667.683,1544.811l10.843-6.283c0,0,3.001-15.377,20.411-15.748
				c-1.994,6.453-4.866,15.748-4.866,15.748s8.569,6.653,28.894-4.732c19.869-4.465,11.382,10.021,17.966,11.06
				c9.717,1.535-7.083,20.63-26.921,23.551c-25.67,3.781-28.716-1.474-28.716-1.474l-14.526,5.075L667.683,1544.811z"/>
			<path id="c_4_" style="fill:#0E6A41;" d="M556.803,1562.697c36.237-2.531,108.608-21.889,108.608-21.889
				c9.893,15.174,7.156,35.328,7.156,35.328c-56.276,49.338-140.972,65.287-166.959,53.412
				c-23.725-10.842-21.363-168.279,38.205-201.361L556.803,1562.697z"/>
		</g>
	</g>
	<g>
		<g>
			<path style="fill:#3F964F;" d="M2304.854,1626.496H1205.107c-15.849,0-28.696,11.066-28.696,24.715v150.183
				c0,13.649,12.848,24.714,28.696,24.714h1099.746V1626.496z"/>
		</g>
		<path style="fill:#0E6A41;" d="M2335.923,1665.41v121.298c0,4.419,3.776,8.034,8.394,8.034h320.551
			c9.02,0,16.33,6.997,16.33,15.629l0,0c0,8.633-7.311,15.63-16.33,15.63h-354.838c-9.703,0-17.568-7.865-17.568-17.567v-164.75
			c0-9.703,7.865-17.567,17.568-17.567h354.838c9.02,0,16.33,6.998,16.33,15.63v0.08c0,8.631-7.311,15.629-16.33,15.629h-320.635
			C2339.662,1657.455,2335.923,1661.035,2335.923,1665.41z"/>
		<path style="fill:#FFFFFF;" d="M2650.053,1794.751h-305.427c-8.781,0-15.9-7.119-15.9-15.9v-105.517c0-8.782,7.119-15.9,15.9-15.9
			h305.427V1794.751z"/>
		<path style="fill:#0E6A41;" d="M1489.747,1626.497c0,0-37.214,85.776-0.624,199.61c-16.681,0-48.429-0.107-48.429-0.107
			s-39.532-87.965,0-199.503C1459.528,1626.497,1489.747,1626.497,1489.747,1626.497z"/>
		<path style="fill:#0E6A41;" d="M2116.394,1626.497c0,0-37.214,85.776-0.623,199.61c-16.681,0-48.43-0.107-48.43-0.107
			s-39.532-87.965,0-199.503C2086.175,1626.497,2116.394,1626.497,2116.394,1626.497z"/>
		<rect x="2357.262" y="1680.889" style="fill:#E3EAFF;" width="237.478" height="12.35"/>
		<rect x="2488.078" y="1712.012" style="fill:#E3EAFF;" width="148.328" height="12.35"/>
		<rect x="2341.061" y="1771.092" style="fill:#E3EAFF;" width="191.796" height="12.348"/>
		<rect x="2383.537" y="1742.85" style="fill:#E3EAFF;" width="89.916" height="12.351"/>
	</g>
	<g>
		<g>
			<path style="fill:#F5A3B7;" d="M1770.703,1254.172h929.953c15.123,0,27.385,12.26,27.385,27.383v140.104
				c0,15.124-12.262,27.385-27.385,27.385h-929.953V1254.172z"/>
		</g>
		<path style="fill:#F57191;" d="M1740.371,1292.159v118.419c0,4.314-3.687,7.844-8.193,7.844h-312.941
			c-8.804,0-15.941,6.83-15.941,15.258l0,0c0,8.426,7.137,15.258,15.941,15.258h346.414c9.473,0,17.15-7.678,17.15-17.15v-160.838
			c0-9.472-7.678-17.15-17.15-17.15h-346.414c-8.804,0-15.941,6.832-15.941,15.259v0.079c0,8.426,7.137,15.258,15.941,15.258
			h313.023C1736.721,1284.395,1740.371,1287.889,1740.371,1292.159z"/>
		<path style="fill:#FFFFFF;" d="M1433.7,1418.43h303.413c8.645,0,15.654-7.008,15.654-15.654v-102.748
			c0-8.646-7.01-15.654-15.654-15.654H1433.7V1418.43z"/>
		<path style="fill:#F57191;" d="M1994.23,1254.172c0,0,37.215,83.74,0.623,194.871c16.682,0,48.43-0.105,48.43-0.105
			s39.532-85.877,0-194.766C2024.449,1254.172,1994.23,1254.172,1994.23,1254.172z"/>
		<path style="fill:#F57191;" d="M1911.662,1254.172c0,0,37.215,83.74,0.623,194.871c16.682,0,48.43-0.105,48.43-0.105
			s39.533-85.877,0-194.766C1941.882,1254.172,1911.662,1254.172,1911.662,1254.172z"/>
		<rect x="1552.954" y="1303.598" style="fill:#E3EAFF;" width="167.407" height="12.322"/>
		<rect x="1519.046" y="1387.73" style="fill:#E3EAFF;" width="167.407" height="12.321"/>
		<rect x="1579.331" y="1362.151" style="fill:#E3EAFF;" width="167.406" height="12.321"/>
	</g>
	<g>
		<path style="fill:#C4204A;" d="M1027.829,1625.148l866.984,4.435l0.938-183.43l-866.983-4.438
			c-14.225-0.072-25.815,11.4-25.888,25.625l-0.675,131.918C1002.131,1613.484,1013.604,1625.075,1027.829,1625.148z"/>
		<g>
			<path style="fill:#FFFFFF;" d="M1879.746,1596.803l681.905-0.695l-0.252-113.816l-673.714-6.272
				c-3.338-0.018-14.047,9.448-14.061,11.959l0,0l0.305,103.774C1873.916,1594.263,1876.408,1596.787,1879.746,1596.803
				L1879.746,1596.803z"/>
			<path style="fill:#E62552;" d="M2578.164,1631.342c10.012,0.887,18.392-5.765,20.112-15.799
				c0.886-10.037-5.748-18.439-15.755-20.165c-1.67-0.009-2.504-0.013-4.174-0.021l-676.063,0.725
				c-7.512-0.039-15.023-0.077-22.531-0.953c-2.465-7.544-4.091-15.921-3.213-24.285l-0.51-63.606
				c0.039-7.531,0.077-15.063,1.785-22.587c8.358-2.468,16.709-3.262,25.051-2.382l676.063-0.726
				c10.012,0.889,18.393-5.765,20.113-15.798c0.886-10.037-5.748-18.442-15.756-20.166c-1.669-0.008-2.504-0.012-4.173-0.021
				l-726.97-0.371c-10.851-0.057-20.078,9.104-20.135,19.982l0.095,144.779c-0.056,10.879,9.077,20.132,19.928,20.188
				L2578.164,1631.342z"/>
		</g>
		<rect x="1087.774" y="1492.354" style="fill:#E62552;" width="639.284" height="89.869"/>
		<rect x="1915.047" y="1550.7" style="fill:#E3EAFF;" width="365.097" height="11.1"/>
		<rect x="1978.285" y="1519.326" style="fill:#E3EAFF;" width="365.097" height="11.1"/>
		<rect x="1931.338" y="1495.946" style="fill:#E3EAFF;" width="156.721" height="11.101"/>
		<rect x="2160.834" y="1571.123" style="fill:#E3EAFF;" width="365.096" height="11.1"/>
		<polygon style="fill:#C4204A;" points="2067.771,1712.354 2001.585,1681.662 1941.736,1712.354 1941.736,1550.488 
			2067.771,1550.488 		"/>
	</g>
	<g>
		<path d="M2371.865,893.767c9.305-32.1,5.98-62.903-16.91-83.08c-23.2-20.453-59.301-12.864-59.301-12.864l0,0
			c-0.002-0.001-25.836-15.861-57.068,6.667c-31.233,22.529-17.279,51.134-31.949,69.282c-8.688,10.748-40.408,6.623-40.664,47.571
			c-0.074,11.81,11.924,22.311,23.291,25.511c19.975,5.622,40.495,1.789,47.047,11.358c21.59,31.535,83.526,34.907,96.918,13.083
			c4.152-6.768,55.087,18.822,60.268-32.164C2396.121,913.295,2363.553,922.448,2371.865,893.767z"/>
		<path style="fill:#2C2858;" d="M2362.479,1089.114c-7.813-23.81-38.423-105.728-62.876-113.102
			c-29.464-8.885-28.108,18.578-24.604,34.615c3.506,16.038,45.811,97.834,45.811,97.834L2362.479,1089.114z"/>
		<path style="fill:#F37A50;" d="M2518.568,1373.607l17.035,23.827c0,0,15.215,19.392,33.352,10.288
			c18.139-9.106,10.099-38.237,10.099-38.237l-20.839-27.437L2518.568,1373.607z"/>
		<g>
			<g>
				<g>
					<path style="fill:#2C2858;" d="M2578.343,1366.33c0,0,18.315-0.172,38.212-6.952c11.131-3.792,40.229-14.826,46.763,5.083
						c0.975,2.972,0.52,7.133-4.941,13.461c-8.065,9.346-20.379,19.633-49.253,28.578c-34.64,10.73-37.434,16.863-50.664,20.135
						c-13.714,3.391-18.252-15.738-23.554-31.279l0,0c2.419,3.279,9.628,11.357,35.393,6.647
						C2577.99,1400.596,2556.037,1376.42,2578.343,1366.33z"/>
				</g>
			</g>
		</g>
		<path style="fill:#F37A50;" d="M2391.247,1456.264v16.16c0,0,1.099,24.625,21.149,27.768
			c20.049,3.142,30.452-25.233,30.452-25.233l-0.735-25.454L2391.247,1456.264z"/>
		<path style="fill:#F37A50;" d="M2290.84,928.65c0,0-3.579,32.772-4.721,44.861l-44.124,1.299
			c13.481-20.872,7.401-80.373,7.401-80.373L2290.84,928.65z"/>
		<g>
			<path style="fill:#F37A50;" d="M2245.98,879.396c-7.441,38.696,11.162,74.802,41.553,80.646
				c30.392,5.844,61.061-20.786,68.502-59.479c7.442-38.695-11.162-74.801-41.553-80.646
				C2284.092,814.072,2253.423,840.703,2245.98,879.396z"/>
			<path d="M2339.035,903.917c0.111,2.97,2.607,5.289,5.578,5.179c2.971-0.11,5.289-2.608,5.18-5.579
				c-0.111-2.97-2.608-5.289-5.578-5.178C2341.244,898.45,2338.926,900.947,2339.035,903.917z"/>
			<path d="M2296.224,895.988c0.119,3.215,2.823,5.724,6.038,5.606c3.215-0.12,5.726-2.823,5.605-6.039
				c-0.119-3.215-2.822-5.726-6.037-5.606C2298.614,890.068,2296.104,892.771,2296.224,895.988z"/>
			<g>
				<path d="M2292.345,888.935c0.443-0.017,0.885-0.178,1.247-0.491c5.257-4.536,12.95-2.401,13.027-2.379
					c1.073,0.309,2.196-0.31,2.507-1.383c0.312-1.072-0.302-2.193-1.374-2.507c-0.399-0.117-9.859-2.792-16.807,3.202
					c-0.848,0.731-0.941,2.01-0.211,2.857C2291.152,888.719,2291.751,888.958,2292.345,888.935z"/>
			</g>
			<g>
				<path d="M2352.945,901.65c0.218-0.007,0.438-0.051,0.651-0.133c1.044-0.4,1.566-1.572,1.165-2.617
					c-3.111-8.112-11.096-8.945-11.434-8.977c-1.111-0.103-2.102,0.715-2.205,1.829c-0.104,1.111,0.709,2.097,1.819,2.205
					c0.262,0.027,5.849,0.689,8.037,6.394C2351.298,901.182,2352.104,901.682,2352.945,901.65z"/>
			</g>
			<path style="fill:#DE623C;" d="M2331.057,913.153c1.438,3.985,2.506,7.906,4.342,10.687c0.619,0.937,0.375,2.214-0.531,2.878
				c-3.74,2.741-11.17,3.027-15.598,2.925c-0.646-0.015-0.771-0.927-0.152-1.115c5.238-1.591,7.945-3.283,9.223-4.306
				c0.635-0.508,0.979-1.289,0.942-2.103c-0.081-1.867-0.21-5.657-0.085-8.689C2329.24,912.382,2330.701,912.167,2331.057,913.153z"
				/>
			<path style="fill:#F37A50;" d="M2259.074,885.591c4.316,8.198,2.377,17.708-4.333,21.242c-6.71,3.532-15.648-0.252-19.965-8.451
				c-4.316-8.198-2.376-17.708,4.333-21.242C2245.82,873.608,2254.758,877.391,2259.074,885.591z"/>
			<g>
				<path style="fill:#DE623C;" d="M2247.281,901.549c0.305-0.012,0.611-0.092,0.897-0.248c4.099-2.246,6.069-5.961,5.272-9.939
					c-0.814-4.073-4.276-7.334-8.229-7.754c-1.113-0.117-2.11,0.688-2.229,1.801s0.688,2.111,1.8,2.229
					c2.166,0.23,4.225,2.216,4.686,4.521c0.443,2.214-0.709,4.199-3.246,5.589c-0.982,0.538-1.342,1.77-0.804,2.75
					C2245.81,901.194,2246.539,901.576,2247.281,901.549z"/>
			</g>
			<g>
				<path style="fill:#DE623C;" d="M2300.996,944.665c-13.345-6.04-15.166-16.851-15.254-17.423
					c-0.186-1.221,0.654-2.362,1.875-2.548c1.219-0.185,2.355,0.648,2.547,1.863c0.101,0.612,2.635,14.387,24.305,17.147
					c1.225,0.156,2.092,1.277,1.936,2.502c-0.156,1.226-1.275,2.091-2.501,1.936
					C2308.709,947.481,2304.463,946.233,2300.996,944.665z"/>
			</g>
		</g>
		<path d="M2246.701,876.003c34.712,10.429,95.596-2.189,107.097-17.6c2.974-23.42-26.079-49.018-49.435-48.115
			C2281.01,811.191,2244.547,843.862,2246.701,876.003z"/>
		<path style="fill:#3F964F;" d="M2256.641,1242.267l182.27-7.788c0,0,8.991-45.49,2.227-63.527
			c-6.764-18.036-174.229-14.317-174.229-14.317L2256.641,1242.267z"/>
		<path style="fill:#0E6A41;" d="M2203.033,1125.461c-4.938,11.414-24.188,45.385-22.329,72.924
			c1.919,28.424,21.974,53.17,55.914,52.631c0,0,63.973-36.365,50.126-110.854
			C2286.744,1140.162,2253.254,1127.081,2203.033,1125.461z"/>
		<path style="fill:#0E6A41;" d="M2231.562,1257.504l160.554,15.145c0,0,55.074-23.24,54.762-42.979
			c-0.314-19.738-162.086-73.746-162.086-73.746C2189.911,1128.254,2158.283,1246.012,2231.562,1257.504z"/>
		<path style="fill:#0E6A41;" d="M2446.877,1229.67l-3.219,226.467c0,0-40.08,16.893-54.125,0.131
			c-6.629-76.863-38.191-144.955-2.955-191.813C2433.771,1201.697,2446.877,1229.67,2446.877,1229.67z"/>
		<path style="fill:#3F964F;" d="M2440.751,1170.42l133.607,183.484c0,0-29.819,39.855-50.643,35.189
			c-35.924-45.457-108.618-98.761-109.083-155.967C2414.012,1156.508,2440.751,1170.42,2440.751,1170.42z"/>
		<path style="fill:#37326E;" d="M2247.733,959.416l41.452,8.039c14.903,27.92,28.977,54.85,29.016,71.652
			c0.051,22.123-30.305,113.756-30.305,113.756c-39.943,5.264-72.479,0.212-97.145-15.793
			c19.263-54.479-13.627-121.741,22.056-158.497C2221.713,969.401,2235.962,965.334,2247.733,959.416z"/>
		<g>
			<g>
				<g>
					<path style="fill:#2C2858;" d="M2444.105,1471.979c0,0,15,10.512,35.127,16.568c11.262,3.389,41.35,11.336,35.085,31.332
						c-0.935,2.984-3.726,6.104-11.849,8.076c-11.996,2.912-27.996,4.119-56.688-5.398c-34.418-11.416-40.258-8.051-52.924-13.086
						c-13.128-5.217-5.694-23.416-0.969-39.145l0,0c0.061,4.075,1.227,14.839,24.926,25.991
						C2423.891,1499.646,2420.092,1467.214,2444.105,1471.979z"/>
				</g>
			</g>
		</g>
		<path style="fill:#2C2858;" d="M2196.174,997.219c-18.781,31.847-47.013,133.47-41.941,145.841l46.184-8.352
			c0,0,43.246-97.057,50.821-116.283C2264.433,985.162,2226.738,945.165,2196.174,997.219z"/>
		<g>
			<polygon style="fill:#8A284C;" points="2497.764,1103.902 2515.309,1053.596 2422.85,1083.216 2482.754,1107.188 			"/>
			<polygon style="fill:#F3DAD1;" points="2495.156,1099.238 2511.118,1054.869 2507.016,1050.869 2426.037,1077.564 			"/>
			<path style="fill:#FFFFFF;" d="M2496.309,1101.251c-2.627-5.796-13.418-14.688-29.021-15.329
				c-15.602-0.639-67.107-18.223-70.34-20.805c-5.49,3.559-105.347,67.315-105.347,67.315l2.791,7.25L2496.309,1101.251z"/>
			<polygon style="fill:#8A284C;" points="2289.057,1140.35 2290.768,1144.695 2383.468,1166.385 2497.764,1103.902 
				2496.053,1099.557 2401.642,1073.521 			"/>
			<polygon style="fill:#E62552;" points="2290.768,1144.695 2385.18,1170.73 2497.764,1103.902 2403.354,1077.868 			"/>
		</g>
		<g>
			<g>
				<g>
					<g>
						<path style="fill:#DE623C;" d="M2450.736,1055.181c-8.358,2.244-22.969,13.96-27.25,19.699l5.718,1.812l6.947-2.639
							c7.608-0.365,12.146,5.506,27.26,1.548c7.571-1.982,12.223-2.329,12.385-3.308c0.161-0.978-0.405-6.865-9.486-4.595
							c-6.198,1.55-9.493,2.546-6.817-1.306l25.518-8.351C2481.723,1052.092,2462.584,1052.001,2450.736,1055.181z"/>
					</g>
				</g>
			</g>
		</g>
		<g>
			<g>
				<g>
					<g>
						<path style="fill:#F37A50;" d="M2339.553,1130.359c-6.813,1.219-26.889,3.133-41.42,6.582l4.938-20.127
							c10.817,0.127,21.53-19.387,42.77-23.455c7.244-1.389,10.523-2.641,11.207-1.731c0.685,0.909,3.23,7.198-7.211,9.705
							c-13.103,3.146-3.041,12.741,22.738-0.517c6.455-3.32,19.543-1.515,15.523,3.955
							C2383.668,1110.797,2370.559,1124.813,2339.553,1130.359z"/>
					</g>
				</g>
			</g>
		</g>
		<path style="fill:#2C2858;" d="M2167.371,1097.246c-11.545,4.886-15.736,42.604-12.223,45.227
			c69.42,26.478,151.535-6.07,151.535-6.07l-1.107-21.123C2305.576,1115.278,2235.309,1111.211,2167.371,1097.246z"/>
	</g>
	<g id="c_24_">
		<path style="fill:#C4204A;" d="M1395.941,1100.034c50.436-13.086-21.671,114.128-21.671,114.128s-3.018,74.133-23.974,69.498
			c0,0-39.028,15.318-36.37-25.223C1316.328,1221.802,1347.274,1112.66,1395.941,1100.034z"/>
		<path style="fill:#C4204A;" d="M1539.497,1101.665l1.087,87.005c0,0,7.562,87.063,26.101,97.878
			c13.051,7.612,48.002,10.212,45.344-30.33C1609.627,1219.583,1597.615,1114.84,1539.497,1101.665z"/>
		
			<rect x="1439.499" y="1089.099" transform="matrix(-1 -1.224647e-16 1.224647e-16 -1 2926.52 2208.8428)" style="fill:#F37A50;" width="47.523" height="30.646"/>
		<g>
			<path style="fill:#F37A50;" d="M1208.496,1672.835l-12.401,37.632l-35.28-27.49c1.275-1.082-2.664-26.137-2.367-40.463
				l46.535-1.631C1207.279,1655.557,1208.496,1672.835,1208.496,1672.835z"/>
			<g>
				<g>
					<path style="fill:#201D40;" d="M1149.727,1713.471c0,0-12.178-17.624-26.102-17.836c0,0-26.023,3.279-34.438,14.891
						c-2.643,3.647-1.035,10.936,0.426,15.572c0.912,2.894,3.625,5.92,11.512,7.822c11.65,2.81,27.182,3.959,55.018-5.32
						c33.395-11.131,39.068-7.872,51.356-12.777c12.735-5.083,7.465-20.715,2.855-35.974
						C1210.355,1679.848,1202.173,1699.466,1149.727,1713.471z"/>
				</g>
				<g>
					<g>
						<path style="fill:#2C2858;" d="M1157.435,1673.279c0,0-14.545,10.225-34.075,16.133
							c-10.926,3.305-40.121,11.063-34.012,30.463c0.912,2.896,3.625,5.92,11.512,7.822c11.65,2.811,27.182,3.959,55.019-5.32
							c33.395-11.131,39.068-7.872,51.355-12.777c12.735-5.083,5.494-22.739,0.884-37.998l0,0
							c-0.053,3.955-1.17,14.404-24.158,25.264C1177.097,1700.107,1180.738,1668.619,1157.435,1673.279z"/>
					</g>
				</g>
				<g>
					<path style="fill:#494C7F;" d="M1163.473,1696.744c-1.138,0.001-2.195-0.725-2.563-1.866c-3.058-9.483-13.075-9.485-13.5-9.485
						c-1.48,0.016-2.702-1.168-2.723-2.649c-0.022-1.481,1.151-2.7,2.632-2.728c4.971-0.104,15.271,2.546,18.711,13.214
						c0.456,1.413-0.321,2.93-1.735,3.385C1164.021,1696.701,1163.745,1696.743,1163.473,1696.744z"/>
				</g>
				<g>
					<path style="fill:#494C7F;" d="M1151.354,1702.588c-1.137,0.001-2.195-0.725-2.563-1.865c-3.058-9.484-13.075-9.486-13.5-9.486
						c-1.48,0.016-2.701-1.169-2.723-2.648c-0.022-1.483,1.152-2.701,2.632-2.729c4.971-0.104,15.271,2.546,18.71,13.214
						c0.456,1.413-0.32,2.929-1.734,3.385C1151.903,1702.545,1151.625,1702.588,1151.354,1702.588z"/>
				</g>
			</g>
			<path style="fill:#201D40;" d="M1352.578,1347.1c-69.271,19.297-171.267,74.847-180.189,86.129
				c-18.428,23.302-10.137,88.155-16.966,232.84l56.774-1.516c12.821-111.488,39.74-154.813,39.433-196.805
				c0,0,54.368-1.193,132.8-39.984c38.663-19.123,78.778-40.978,63.454-76.086C1435.674,1323.707,1418.628,1328.7,1352.578,1347.1z"
				/>
			<path style="fill:#F37A50;" d="M1331.825,1697.411l-33.372,18.929l-16.109-26.623c1.259-1.104,4.434-27.541,4.515-41.871
				l44.667,3.533C1330.224,1665.939,1335.129,1683.17,1331.825,1697.411z"/>
			<path style="fill:#2C2858;" d="M1426.542,1349.41c-80.881,10.842-139.802,91.292-146.247,104.15
				c-13.11,26.158,6.379,78.982-1.592,210.992l59.717-3.926c9.105-68.455,23.819-121.943,23.095-172.109
				c0,0,42.435-31.178,127.551-51.463c46.561-11.098,60.48-18.51,69.023-49.115c2.906-10.413,1.684-36.621-3.044-41.925
				C1534.125,1322.547,1481.974,1341.979,1426.542,1349.41z"/>
			<g>
				<g>
					<path style="fill:#201D40;" d="M1283.822,1728.161c0,0-15.627-14.653-29.282-11.919c0,0-24.742,8.703-30.513,21.83
						c-1.813,4.123,1.298,10.907,3.706,15.131c1.503,2.638,4.794,5.021,12.905,5.214c11.98,0.285,27.404-1.874,52.652-16.824
						c30.289-17.934,36.523-15.949,47.497-23.339c11.374-7.66,2.92-21.824-4.81-35.766
						C1335.978,1682.488,1332.125,1703.391,1283.822,1728.161z"/>
				</g>
				<g>
					<g>
						<path style="fill:#2C2858;" d="M1282.865,1687.247c0,0-12.057,13.068-29.897,22.969c-9.981,5.54-36.878,19.29-26.808,36.962
							c1.503,2.637,4.794,5.019,12.905,5.213c11.98,0.285,27.404-1.873,52.652-16.824c30.289-17.936,36.523-15.949,47.497-23.34
							c11.374-7.659,0.565-23.387-7.164-37.328l0,0c0.785,3.879,1.9,14.328-18.275,29.799
							C1307.751,1709.316,1304.657,1677.771,1282.865,1687.247z"/>
					</g>
				</g>
				<g>
					<path style="fill:#494C7F;" d="M1299.026,1708.828c-1.125,0.164-2.276-0.404-2.802-1.482
						c-4.373-8.953-14.289-7.532-14.71-7.473c-1.462,0.227-2.84-0.773-3.072-2.234c-0.232-1.463,0.757-2.838,2.218-3.076
						c4.906-0.809,15.478,0.351,20.397,10.423c0.652,1.335,0.098,2.945-1.236,3.597
						C1299.563,1708.709,1299.295,1708.789,1299.026,1708.828z"/>
				</g>
				<g>
					<path style="fill:#494C7F;" d="M1287.86,1716.334c-1.126,0.162-2.276-0.406-2.802-1.482c-4.374-8.955-14.29-7.533-14.71-7.473
						c-1.462,0.226-2.84-0.774-3.072-2.236s0.756-2.837,2.218-3.074c4.906-0.809,15.478,0.351,20.397,10.422
						c0.651,1.336,0.098,2.945-1.236,3.598C1288.396,1716.213,1288.129,1716.295,1287.86,1716.334z"/>
				</g>
			</g>
		</g>
		<g id="v_3_">
			<path id="h-5_2_" style="fill:#E62552;" d="M1539.497,1101.665c0,0-31.55-7.228-47.74-4.751c-29.79,25.065-56.839,0-56.839,0
				c-18.164-0.609-38.977,3.12-38.977,3.12c0,49.806-32.782,249.989-32.782,249.989s23.333,28.199,100.084,28.199
				c46.539-0.301,98.533-13.518,98.533-13.518S1539.497,1151.338,1539.497,1101.665z"/>
		</g>
		<g>
			<path style="fill:#2C2858;" d="M1504.482,1077.127c25.794,3.063,39.277-29.88,39.277-29.88
				c15.799-2.61,13.135-18.345,13.135-18.345c7.495-2.299,17.48-10.346,14.266-24.648c-2.723-12.111-14.601-11.541-16.131-25.724
				c-1.227-11.381,6.939-39.276-29.388-41.429c0,0-0.897-21.154-22.717-26.206c-26.752-6.193-33.365,9.885-45.09,12.772
				c-13.096,3.224-41.261-8.816-44.927,21.503c0,0-18.699,0.44-27.292,14.05c-8.006,12.681-3.308,28.885,2.076,34.84
				c0,0-14.991,5.111-18.434,19.316c-2.308,9.524,1.406,21.831,10.892,27.802c6.036,3.8,11.768,4.15,11.768,4.15
				c6.124,0.998,6.512,17.396,11.908,20.564c8.661,5.085,18.069,8.672,27.635,11.512L1504.482,1077.127z"/>
			<path style="fill:#F37A50;" d="M1405.33,1014.148c-2.974,44.482,21.44,82.336,54.532,84.548
				c33.09,2.212,62.326-32.055,65.3-76.537c2.973-44.482-23.487-73.213-56.577-75.426
				C1435.494,944.521,1408.303,969.667,1405.33,1014.148z"/>
			<path d="M1486.436,1042.183c3.518,0.235,6.559-2.425,6.794-5.942c0.235-3.516-2.425-6.558-5.942-6.793
				c-3.517-0.235-6.558,2.426-6.793,5.941C1480.259,1038.906,1482.919,1041.947,1486.436,1042.183z"/>
			<path d="M1439.125,1040.796c3.517,0.235,6.558-2.425,6.793-5.942c0.235-3.516-2.425-6.558-5.942-6.793
				c-3.517-0.234-6.558,2.426-6.793,5.941C1432.949,1037.52,1435.609,1040.561,1439.125,1040.796z"/>
			<path style="fill:#DE623C;" d="M1456.722,1041.262c-6.655,7.698-8.594,10.67-11.234,13.338c3.845,6.66,15.936,7.547,18.937,5.961
				c-8.75-2-11.096-6.967-11.096-6.967L1456.722,1041.262z"/>
			<path style="fill:#F37A50;" d="M1514.469,1029.475c-6.181,9.225-5.649,20.416,1.187,24.998c6.836,4.58,17.39,0.815,23.571-8.41
				c6.181-9.225,5.65-20.416-1.188-24.998C1531.204,1016.484,1520.65,1020.25,1514.469,1029.475z"/>
			<g>
				<path style="fill:#DE623C;" d="M1520.565,1046.963c0.265,0.017,0.537-0.016,0.803-0.108c1.067-0.369,1.633-1.532,1.264-2.599
					c-1.225-3.545-1.073-6.319,0.453-8.249c2.355-2.979,7.488-3.604,11.159-3.234c1.122,0.115,2.125-0.707,2.237-1.83
					c0.113-1.121-0.706-2.123-1.829-2.236c-4.929-0.495-11.397,0.498-14.773,4.767c-1.682,2.127-3.24,5.956-1.11,12.118
					C1519.046,1046.392,1519.77,1046.91,1520.565,1046.963z"/>
			</g>
			<path style="fill:#2C2858;" d="M1546.179,990.481l-70.797-59.36l-80.164,38.909l8.679,57.437
				c2.538-26.406,18.574-17.557,27.097-25.125c8.64-7.67,12.574-19.838,32.324-8.628c0,0,16.423-10.834,24.427,5.05
				c6.188,12.282,14.967,10.122,23.653,10.932c10.246,0.953,7.606,10.875,13.881,10.676L1546.179,990.481z"/>
			<g>
				<path style="fill:#2C2858;" d="M1430.213,1024.959c0.656,0,1.315-0.229,1.847-0.694c5.435-4.755,13.32-1.562,13.399-1.53
					c1.428,0.593,3.071-0.078,3.669-1.504s-0.063-3.064-1.487-3.668c-0.452-0.191-11.169-4.617-19.278,2.479
					c-1.167,1.019-1.285,2.793-0.264,3.96C1428.655,1024.635,1429.432,1024.959,1430.213,1024.959z"/>
			</g>
			<g>
				<path style="fill:#2C2858;" d="M1498.699,1028.398c0.664,0,1.329-0.234,1.863-0.709c1.159-1.03,1.263-2.805,0.234-3.963
					c-8.128-9.143-19.625-4.361-20.111-4.154c-1.424,0.611-2.084,2.262-1.474,3.686c0.609,1.422,2.253,2.082,3.676,1.479
					c0.366-0.152,8.311-3.357,13.713,2.72C1497.155,1028.08,1497.926,1028.398,1498.699,1028.398z"/>
			</g>
			<g>
				<path style="fill:#DE623C;" d="M1458.62,1078.189c10.112,0,18.361-5.6,18.487-5.688c1.062-0.736,1.325-2.193,0.589-3.255
					c-0.736-1.059-2.192-1.325-3.253-0.589c-0.692,0.475-16.478,11.088-29.502-0.404c-0.969-0.855-2.447-0.763-3.301,0.205
					c-0.854,0.969-0.762,2.447,0.206,3.302C1447.333,1076.604,1453.241,1078.189,1458.62,1078.189z"/>
			</g>
		</g>
		<path style="fill:#DE623C;" d="M1526.864,1263.975c-16.542-12.518-37.834-31.411-43.812-40.235c0,0,19.144-18.065,24.405-17.539
			c18.155,15.786,119.043,35.759,83.667,79.983C1581.05,1298.775,1551.044,1282.273,1526.864,1263.975z"/>
		<path style="fill:#DE623C;" d="M1383.092,1253.466c5.787-18.163,2.47-30.567,8.448-39.392c0,0-16.668-22.367-19.267-17.168
			c-9.925,20.115-81.137,64.088-49.003,90.357C1335.756,1297.471,1373.811,1282.334,1383.092,1253.466z"/>
		<g>
			<path style="fill:#FFFFFF;" d="M1495.559,1146.314l-8.973-2.129c-33.09,10.527-73.583,2.953-84.873,27.139l-0.001,14.292
				L1495.559,1146.314z"/>
			<polygon style="fill:#3F964F;" points="1501.683,1252.676 1421.782,1277.605 1411.188,1174.053 1498.415,1144.186 			"/>
			<path style="fill:#E9EDF2;" d="M1319.618,1146.314l8.973-2.129c33.09,10.527,61.755,2.953,73.043,27.139l0.001,14.292
				L1319.618,1146.314z"/>
			<polygon style="fill:#3F964F;" points="1337.085,1252.676 1402.752,1277.605 1392.159,1174.053 1316.762,1144.186 			"/>
			<path style="fill:#0E6A41;" d="M1402.092,1278.767c6.512,3.964,13.322,3.964,20.427,0l-10.592-106.505
				c-6.804,2.994-13.614,2.996-20.428,0L1402.092,1278.767z"/>
		</g>
		<g>
			<path style="fill:#F37A50;" d="M1488.52,1231.059c-2.639-2.268-7.808-10.225,0.351-9.844
				c-10.596-2.924-13.161-11.352,0.197-12.298c-9.648-0.796-15.004-11.32,1.178-13.157c-9.159-1.314-12.75-10.23-3.684-11.926
				c9.607-1.797,23.994-5.074,29.436-0.033c4.303,3.984,1.678,8.818-2.631,11.108c8.453,3.396,7.475,14.113-2.965,15.475
				c4.02,2.205,5.526,7.231,3.382,11.287c-2.27,4.473-7.69,6.316-12.214,4.156c3.291,2.535,4.531,7.695,0.964,9.408
				C1497.988,1237.441,1491.241,1233.639,1488.52,1231.059z"/>
		</g>
		<g>
			<path style="fill:#F37A50;" d="M1338.624,1213.521c2.639-2.267,7.809-10.225-0.35-9.844c10.596-2.924,13.16-11.352-0.197-12.297
				c9.649-0.796,15.004-11.32-1.178-13.158c9.158-1.313,12.749-10.23,3.683-11.926c-9.607-1.796-23.993-5.074-29.436-0.033
				c-4.302,3.985-1.677,8.818,2.631,11.108c-8.453,3.396-7.475,14.114,2.965,15.474c-4.02,2.206-5.525,7.232-3.381,11.287
				c2.27,4.473,7.69,6.317,12.214,4.155c-3.291,2.538-4.531,7.698-0.964,9.41
				C1329.156,1219.904,1335.902,1216.101,1338.624,1213.521z"/>
		</g>
	</g>
	<g>
		<g>
			<g>
				<path style="fill:#E3EAFF;" d="M1738.783,1234.525h-17.828c-2.842,0-5.146-2.305-5.146-5.147s2.305-5.148,5.146-5.148h12.682
					v-33.482h-12.682c-2.842,0-5.146-2.305-5.146-5.148c0-2.843,2.305-5.147,5.146-5.147h17.828c2.844,0,5.147,2.305,5.147,5.147
					v43.777C1743.931,1232.221,1741.627,1234.525,1738.783,1234.525z"/>
			</g>
			<path style="fill:#E3EAFF;" d="M1715.926,1254.794h-56.858c-2.778,0-5.03-2.251-5.03-5.029v-84.551
				c0-2.778,2.252-5.029,5.03-5.029h56.858c2.778,0,5.029,2.251,5.029,5.029v84.551
				C1720.955,1252.543,1718.704,1254.794,1715.926,1254.794z"/>
		</g>
		<path style="fill:#FFFFFF;" d="M1680.96,1151.176c0,0-21.626-8.771-14.935-24.652c6.691-15.881,31.027-13.79,17.188-36.793
			c16.69,9.201,19.199,29.695,6.234,34.714C1676.481,1129.463,1675.819,1142.168,1680.96,1151.176z"/>
		<path style="fill:#FFFFFF;" d="M1701.283,1151.176c0,0-15.379-6.238-10.621-17.531c4.759-11.291,22.064-9.805,12.222-26.162
			c11.869,6.543,13.653,21.116,4.434,24.685C1698.098,1135.736,1697.627,1144.771,1701.283,1151.176z"/>
	</g>
	<g>
		<path style="fill:#95A6DB;" d="M2981.775,1388.357c-17.423,18.771-51.422,23.27-51.422,23.27s-1.453-37.406,15.971-56.177
			c17.422-18.771,39.482-26.62,49.272-17.532C3005.387,1347.006,2999.199,1369.588,2981.775,1388.357z"/>
		<path style="fill:#95A6DB;" d="M2909.625,1394.05c4.658,25.183-12.027,55.145-12.027,55.145s-30.879-21.164-35.537-46.347
			c-4.658-25.184,2.213-47.568,15.348-49.996C2890.543,1350.422,2904.967,1368.866,2909.625,1394.05z"/>
		<path style="fill:#95A6DB;" d="M2857.387,1514.039c-1.705,4.112-3.098,6.856-3.46,7.555c-0.04,0.089-0.073,0.152-0.093,0.172
			l-0.003,0.012c0,0-0.012-0.004-0.019-0.018l-0.107-0.06c-0.34-0.234-1.338-0.918-2.811-2.004
			c-7.902-5.83-29.29-23.219-33.469-43.588c-5.127-25.09,1.324-47.605,14.404-50.274c13.085-2.68,27.857,15.492,32.99,40.57
			c2.295,11.229,0.336,23.508-2.54,33.635C2860.747,1505.499,2858.938,1510.33,2857.387,1514.039z"/>
		<path style="fill:#95A6DB;" d="M2948.323,1473.943c-25.569-1.439-50.726-24.749-50.726-24.749s27.877-24.985,53.445-23.546
			c25.57,1.441,45.689,13.42,44.938,26.756C2995.229,1465.74,2973.893,1475.384,2948.323,1473.943z"/>
		<path style="fill:#95A6DB;" d="M2904.504,1539.193c-25.58,1.232-53.029-19.326-53.029-19.326s25.12-27.756,50.7-28.989
			s46.839,8.583,47.481,21.925C2950.3,1526.145,2930.084,1537.96,2904.504,1539.193z"/>
		<g>
			<path style="fill:#95A6DB;" d="M2939.676,1405.32c-0.291,0.244-27.453,24.205-72.53,100.581
				c-3.298,5.599-6.698,11.478-10.188,17.642l-0.373-0.207l-2.753-1.559l0.003-0.012l-0.021-0.006l-0.107-0.06
				c-0.34-0.234-1.338-0.918-2.811-2.004c3.92-6.918,7.71-13.465,11.386-19.656c44.933-75.809,71.513-99.125,72.71-100.162
				L2939.676,1405.32z"/>
		</g>
	</g>
	<g>
		<path style="fill:#95A6DB;" d="M311.283,1004.078c7.097,24.605-6.581,56.056-6.581,56.056s-32.799-18.046-39.896-42.653
			c-7.096-24.605-2.445-47.555,10.389-51.256C288.029,962.523,304.185,979.47,311.283,1004.078z"/>
		<path style="fill:#95A6DB;" d="M282.685,1070.23c22.141,8.307,37.898,35.774,37.898,35.774s-31.446,14.351-53.587,6.045
			c-22.14-8.307-36.577-24.402-32.244-35.949C239.085,1064.552,260.545,1061.924,282.685,1070.23z"/>
		<path style="fill:#95A6DB;" d="M354.816,1175.464c2.643,3.581,4.275,6.191,4.689,6.86c0.054,0.08,0.092,0.142,0.099,0.168
			l0.008,0.008c0,0-0.01,0.008-0.026,0.008l-0.106,0.061c-0.375,0.17-1.476,0.674-3.167,1.375
			c-9.069,3.764-34.997,13.121-54.603,6.197c-24.141-8.547-40.105-25.685-35.645-38.269c4.451-12.593,27.639-15.878,51.772-7.342
			c10.804,3.825,20.314,11.834,27.508,19.521C349.232,1168.18,352.438,1172.223,354.816,1175.464z"/>
		<path style="fill:#95A6DB;" d="M375.768,1229.539c4.089,2.861,6.756,5.049,7.435,5.615c0.086,0.064,0.148,0.117,0.165,0.142
			l0.012,0.006c0,0-0.007,0.012-0.025,0.018l-0.091,0.101c-0.338,0.316-1.329,1.243-2.874,2.594
			c-8.294,7.24-32.505,26.451-55.816,26.1c-28.71-0.455-51.801-12.964-51.559-27.931c0.23-14.974,23.699-26.753,52.398-26.306
			c12.849,0.204,25.818,5.316,36.21,10.916C367.229,1223.794,372.082,1226.943,375.768,1229.539z"/>
		<path style="fill:#95A6DB;" d="M398.34,1288.219c4.513,2.035,7.516,3.676,8.282,4.102c0.097,0.048,0.167,0.087,0.188,0.107
			l0.012,0.005c0,0-0.004,0.013-0.021,0.021l-0.069,0.117c-0.272,0.369-1.066,1.457-2.323,3.058
			c-6.748,8.589-26.801,31.782-49.587,35.743c-28.068,4.855-52.884-3.075-55.41-17.709c-2.54-14.637,18.162-30.45,46.218-35.311
			c12.561-2.174,26.146,0.416,37.309,3.955C388.957,1284.195,394.269,1286.371,398.34,1288.219z"/>
		<path style="fill:#95A6DB;" d="M367.359,1076.875c-14.42,21.164-47.364,30.697-47.364,30.697s-7.031-36.769,7.389-57.934
			c14.42-21.164,35.059-32.225,46.097-24.703C384.52,1032.456,381.779,1055.711,367.359,1076.875z"/>
		<path style="fill:#95A6DB;" d="M400.665,1148.066c-12.135,22.553-43.905,35.468-43.905,35.468s-10.826-35.835,1.309-58.388
			c12.135-22.553,31.508-35.704,43.271-29.375C413.103,1102.1,412.8,1125.514,400.665,1148.066z"/>
		<path style="fill:#95A6DB;" d="M433.17,1214.773c-17.92,18.297-52.028,21.881-52.028,21.881s-0.448-37.434,17.473-55.729
			c17.921-18.295,40.184-25.55,49.726-16.203C457.883,1174.07,451.091,1196.479,433.17,1214.773z"/>
		<g>
			<path style="fill:#95A6DB;" d="M304.103,1048.894c0.06,0.378,6.582,36.005,48.773,114.013
				c3.096,5.712,63.62,128.134,67.101,134.303l-7.112,16.4c-3.906-6.926-64.111-143.215-67.52-149.559
				c-41.78-77.59-48.05-112.388-48.319-113.947L304.103,1048.894z"/>
		</g>
	</g>
</g>
</svg>
