<svg xmlns="http://www.w3.org/2000/svg" xmlns:xlink="http://www.w3.org/1999/xlink" width="1920" zoomAndPan="magnify" viewBox="0 0 1440 809.999993" height="1080" preserveAspectRatio="xMidYMid meet" version="1.0"><defs><clipPath id="5ca0ee9b1b"><path d="M 1117 339 L 1331 339 L 1331 556.390625 L 1117 556.390625 Z M 1117 339 " clip-rule="nonzero"/></clipPath></defs><rect x="-144" width="1728" fill="#ffffff" y="-80.999999" height="971.999992" fill-opacity="1"/><rect x="-144" width="1728" fill="#f1f2f3" y="-80.999999" height="971.999992" fill-opacity="1"/><path fill="#ceeaed" d="M 195.226562 285.0625 C 223.308594 288.722656 249.796875 312.605469 276.566406 303.25 C 291.839844 297.917969 302.859375 282.394531 318.96875 280.324219 C 339.730469 277.65625 356.554688 300.863281 354.847656 321.71875 C 353.136719 342.578125 338.894531 360.128906 323.980469 374.816406 C 309.0625 389.503906 292.4375 403.398438 283.527344 422.34375 C 273.625 443.398438 274.660156 467.679688 275.535156 490.925781 C 276.410156 514.167969 276.605469 538.648438 265.429688 559.027344 C 254.253906 579.40625 227.644531 593.21875 207.078125 582.394531 C 188.703125 572.71875 183.09375 560.222656 160.582031 568.0625 C 148.648438 572.203125 139.261719 581.515625 127.886719 586.730469 C 95.109375 601.738281 62.097656 590.433594 57.679688 551.742188 C 55.972656 536.699219 58.953125 521.574219 62.253906 506.804688 C 73.710938 455.460938 88.90625 404.949219 107.679688 355.792969 C 122.355469 317.339844 146.101562 278.691406 195.226562 285.0625 Z M 195.226562 285.0625 " fill-opacity="1" fill-rule="nonzero"/><g clip-path="url(#5ca0ee9b1b)"><path fill="#c1cfa1" d="M 1217.335938 403.402344 C 1217.335938 403.402344 1220.074219 332.878906 1186.066406 340.003906 C 1152.0625 347.132812 1150.296875 384.273438 1186.066406 418.035156 C 1186.066406 418.035156 1129.554688 388.773438 1119.425781 418.035156 C 1109.296875 447.296875 1139.683594 478.808594 1181.324219 459.675781 C 1181.324219 459.675781 1128.429688 481.058594 1148.6875 515.945312 C 1168.945312 550.835938 1204.957031 509.195312 1209.457031 487.8125 C 1209.457031 487.8125 1182.449219 550.835938 1236.46875 556.460938 C 1236.46875 556.460938 1266.855469 544.082031 1249.972656 486.683594 C 1249.972656 486.683594 1273.609375 541.832031 1315.25 519.324219 C 1315.25 519.324219 1339.667969 486.683594 1276.8125 457.425781 C 1276.8125 457.425781 1344.511719 445.042969 1327.628906 410.15625 C 1327.628906 410.15625 1308.496094 359.511719 1258.976562 423.660156 C 1258.976562 423.660156 1300.277344 383.144531 1276.816406 353.886719 C 1253.351562 324.625 1224.089844 364.015625 1217.335938 403.402344 Z M 1217.335938 403.402344 " fill-opacity="1" fill-rule="nonzero"/></g><path fill="#e5d9f2" d="M 599.691406 717.902344 C 577.972656 718.605469 566.734375 697.742188 559.03125 680.601562 C 547.496094 655.496094 540.433594 627.441406 543.792969 599.75 C 544.308594 595.84375 545.148438 592.003906 546.308594 588.238281 C 547.464844 584.46875 548.933594 580.824219 550.703125 577.304688 C 552.476562 573.785156 554.53125 570.433594 556.867188 567.257812 C 559.199219 564.082031 561.785156 561.125 564.617188 558.382812 C 600.054688 524.144531 638.660156 556.050781 674.933594 568.421875 C 694.195312 574.96875 713.09375 567.691406 713.925781 545.777344 C 714.761719 523.863281 703.996094 504.242188 701.472656 483.03125 C 698.945312 461.824219 703.71875 439.71875 721.628906 426.492188 C 739.007812 413.652344 763.339844 412.476562 781.167969 425.144531 C 800.703125 439.054688 806.847656 466.167969 828.890625 477.363281 C 845.175781 485.664062 864.304688 480.335938 876.847656 467.882812 C 880.136719 464.679688 882.902344 461.074219 885.144531 457.066406 C 887.390625 453.0625 889.015625 448.820312 890.03125 444.339844 C 892.167969 434.089844 888.960938 423.199219 892.855469 413.269531 C 900.023438 394.90625 918.8125 394.5625 933.878906 403.53125 C 967.625 423.582031 958.917969 468.03125 941.691406 496.601562 C 924.460938 525.171875 889.644531 548.195312 855.511719 542.203125 C 838.390625 539.1875 823.21875 529.363281 808.988281 519.242188 C 799.140625 512.265625 790.027344 514.171875 789.875 527.675781 C 789.535156 557.632812 791.800781 597.695312 763.640625 616.933594 C 732.78125 638.054688 693.019531 616.933594 659.804688 616.675781 C 646.964844 616.527344 629.222656 621.191406 625.714844 635.722656 C 621.605469 652.84375 640.03125 665.683594 640.824219 682.054688 C 641.765625 701.402344 617.089844 717.34375 599.691406 717.902344 Z M 599.691406 717.902344 " fill-opacity="1" fill-rule="nonzero"/></svg>