<svg xmlns="http://www.w3.org/2000/svg" xmlns:xlink="http://www.w3.org/1999/xlink" width="1920" zoomAndPan="magnify" viewBox="0 0 1440 809.999993" height="1080" preserveAspectRatio="xMidYMid meet" version="1.0"><defs><clipPath id="73bbef6692"><path d="M 1161 358 L 1312 358 L 1312 510.34375 L 1161 510.34375 Z M 1161 358 " clip-rule="nonzero"/></clipPath><clipPath id="d1db5da305"><path d="M 623 404 L 829 404 L 829 562.867188 L 623 562.867188 Z M 623 404 " clip-rule="nonzero"/></clipPath></defs><rect x="-144" width="1728" fill="#ffffff" y="-80.999999" height="971.999992" fill-opacity="1"/><rect x="-144" width="1728" fill="#f1f2f3" y="-80.999999" height="971.999992" fill-opacity="1"/><path fill="#ceeaed" d="M 226.410156 351.707031 C 241.664062 353.699219 256.054688 366.691406 270.59375 361.601562 C 278.890625 358.699219 284.875 350.257812 293.628906 349.128906 C 304.90625 347.679688 314.046875 360.304688 313.117188 371.648438 C 312.1875 382.996094 304.453125 392.542969 296.347656 400.53125 C 288.246094 408.523438 279.214844 416.078125 274.375 426.386719 C 268.996094 437.839844 269.558594 451.046875 270.03125 463.691406 C 270.507812 476.335938 270.617188 489.652344 264.542969 500.738281 C 258.472656 511.824219 244.019531 519.339844 232.847656 513.449219 C 222.867188 508.1875 219.820312 501.390625 207.589844 505.65625 C 201.109375 507.90625 196.007812 512.972656 189.828125 515.808594 C 172.027344 523.972656 154.09375 517.824219 151.695312 496.777344 C 150.765625 488.59375 152.386719 480.363281 154.179688 472.332031 C 160.402344 444.402344 168.65625 416.921875 178.855469 390.183594 C 186.828125 369.265625 199.726562 348.242188 226.410156 351.707031 Z M 226.410156 351.707031 " fill-opacity="1" fill-rule="nonzero"/><g clip-path="url(#73bbef6692)"><path fill="#d1dfb2" d="M 1231.828125 402.960938 C 1231.828125 402.960938 1233.75 353.382812 1209.847656 358.394531 C 1185.941406 363.402344 1184.703125 389.511719 1209.847656 413.246094 C 1209.847656 413.246094 1170.121094 392.675781 1163 413.246094 C 1155.878906 433.8125 1177.242188 455.964844 1206.511719 442.515625 C 1206.511719 442.515625 1169.328125 457.546875 1183.570312 482.074219 C 1197.808594 506.597656 1223.125 477.324219 1226.289062 462.292969 C 1226.289062 462.292969 1207.304688 506.597656 1245.277344 510.554688 C 1245.277344 510.554688 1266.636719 501.851562 1254.769531 461.503906 C 1254.769531 461.503906 1271.382812 500.269531 1300.65625 484.445312 C 1300.65625 484.445312 1317.820312 461.503906 1273.636719 440.933594 C 1273.636719 440.933594 1321.226562 432.230469 1309.359375 407.707031 C 1309.359375 407.707031 1295.910156 372.105469 1261.101562 417.199219 C 1261.101562 417.199219 1290.132812 388.71875 1273.636719 368.152344 C 1257.144531 347.582031 1236.574219 375.269531 1231.828125 402.960938 Z M 1231.828125 402.960938 " fill-opacity="1" fill-rule="nonzero"/></g><g clip-path="url(#d1db5da305)"><path fill="#e5d9f2" d="M 651.898438 562.628906 C 641.136719 562.980469 635.566406 552.640625 631.75 544.144531 C 626.035156 531.703125 622.535156 517.800781 624.199219 504.078125 C 624.714844 500.179688 625.855469 496.46875 627.625 492.957031 C 629.394531 489.441406 631.691406 486.316406 634.519531 483.578125 C 652.078125 466.613281 671.210938 482.421875 689.1875 488.554688 C 698.730469 491.796875 708.09375 488.191406 708.507812 477.332031 C 708.921875 466.472656 703.585938 456.75 702.335938 446.238281 C 701.085938 435.730469 703.449219 424.777344 712.324219 418.222656 C 720.9375 411.859375 732.996094 411.273438 741.828125 417.554688 C 751.511719 424.445312 754.554688 437.882812 765.476562 443.429688 C 773.546875 447.542969 783.027344 444.902344 789.242188 438.730469 C 790.875 437.144531 792.246094 435.359375 793.355469 433.371094 C 794.46875 431.386719 795.273438 429.285156 795.777344 427.066406 C 796.835938 421.984375 795.246094 416.589844 797.175781 411.667969 C 800.730469 402.570312 810.039062 402.398438 817.503906 406.84375 C 834.230469 416.78125 829.914062 438.804688 821.375 452.964844 C 812.839844 467.121094 795.585938 478.53125 778.671875 475.5625 C 770.1875 474.066406 762.667969 469.199219 755.617188 464.183594 C 750.738281 460.726562 746.21875 461.671875 746.144531 468.363281 C 745.976562 483.207031 747.097656 503.0625 733.144531 512.59375 C 717.851562 523.0625 698.148438 512.59375 681.6875 512.46875 C 675.324219 512.394531 666.535156 514.707031 664.792969 521.90625 C 662.757812 530.390625 671.890625 536.753906 672.28125 544.867188 C 672.75 554.453125 660.519531 562.351562 651.898438 562.628906 Z M 651.898438 562.628906 " fill-opacity="1" fill-rule="nonzero"/></g></svg>